<svg xmlns="http://www.w3.org/2000/svg" version="1.1" xmlns:xlink="http://www.w3.org/1999/xlink" xmlns:svgjs="http://svgjs.com/svgjs" width="1440" height="560" preserveAspectRatio="none" viewBox="0 0 1440 560"><g mask="url(&quot;#SvgjsMask1003&quot;)" fill="none"><path d="M560 287L559 -22" stroke-width="6" stroke="url(#SvgjsLinearGradient1004)" stroke-linecap="round" class="Up"></path><path d="M838 495L837 276" stroke-width="6" stroke="url(#SvgjsLinearGradient1005)" stroke-linecap="round" class="Down"></path><path d="M514 361L513 119" stroke-width="8" stroke="url(#SvgjsLinearGradient1005)" stroke-linecap="round" class="Down"></path><path d="M1111 17L1110 367" stroke-width="10" stroke="url(#SvgjsLinearGradient1005)" stroke-linecap="round" class="Down"></path><path d="M228 387L227 732" stroke-width="6" stroke="url(#SvgjsLinearGradient1005)" stroke-linecap="round" class="Down"></path><path d="M1431 1L1430 -204" stroke-width="6" stroke="url(#SvgjsLinearGradient1005)" stroke-linecap="round" class="Down"></path><path d="M630 412L629 646" stroke-width="8" stroke="url(#SvgjsLinearGradient1004)" stroke-linecap="round" class="Up"></path><path d="M356 80L355 -236" stroke-width="6" stroke="url(#SvgjsLinearGradient1005)" stroke-linecap="round" class="Down"></path><path d="M794 233L793 29" stroke-width="6" stroke="url(#SvgjsLinearGradient1004)" stroke-linecap="round" class="Up"></path><path d="M1411 252L1410 4" stroke-width="10" stroke="url(#SvgjsLinearGradient1004)" stroke-linecap="round" class="Up"></path><path d="M1415 146L1414 320" stroke-width="8" stroke="url(#SvgjsLinearGradient1005)" stroke-linecap="round" class="Down"></path><path d="M1014 45L1013 -141" stroke-width="10" stroke="url(#SvgjsLinearGradient1005)" stroke-linecap="round" class="Down"></path><path d="M127 526L126 353" stroke-width="8" stroke="url(#SvgjsLinearGradient1005)" stroke-linecap="round" class="Down"></path><path d="M517 53L516 -103" stroke-width="10" stroke="url(#SvgjsLinearGradient1005)" stroke-linecap="round" class="Down"></path><path d="M705 147L704 -35" stroke-width="6" stroke="url(#SvgjsLinearGradient1004)" stroke-linecap="round" class="Up"></path><path d="M1347 153L1346 -255" stroke-width="8" stroke="url(#SvgjsLinearGradient1004)" stroke-linecap="round" class="Up"></path><path d="M455 213L454 457" stroke-width="10" stroke="url(#SvgjsLinearGradient1005)" stroke-linecap="round" class="Down"></path><path d="M705 115L704 -68" stroke-width="10" stroke="url(#SvgjsLinearGradient1004)" stroke-linecap="round" class="Up"></path><path d="M720 385L719 597" stroke-width="8" stroke="url(#SvgjsLinearGradient1004)" stroke-linecap="round" class="Up"></path><path d="M811 107L810 514" stroke-width="6" stroke="url(#SvgjsLinearGradient1005)" stroke-linecap="round" class="Down"></path><path d="M1137 356L1136 46" stroke-width="8" stroke="url(#SvgjsLinearGradient1005)" stroke-linecap="round" class="Down"></path><path d="M220 386L219 137" stroke-width="6" stroke="url(#SvgjsLinearGradient1004)" stroke-linecap="round" class="Up"></path><path d="M434 6L433 299" stroke-width="10" stroke="url(#SvgjsLinearGradient1005)" stroke-linecap="round" class="Down"></path><path d="M191 217L190 375" stroke-width="8" stroke="url(#SvgjsLinearGradient1005)" stroke-linecap="round" class="Down"></path><path d="M560 158L559 -78" stroke-width="10" stroke="url(#SvgjsLinearGradient1005)" stroke-linecap="round" class="Down"></path><path d="M1347 236L1346 -140" stroke-width="8" stroke="url(#SvgjsLinearGradient1004)" stroke-linecap="round" class="Up"></path><path d="M115 61L114 -209" stroke-width="8" stroke="url(#SvgjsLinearGradient1005)" stroke-linecap="round" class="Down"></path><path d="M720 393L719 93" stroke-width="6" stroke="url(#SvgjsLinearGradient1004)" stroke-linecap="round" class="Up"></path><path d="M1404 16L1403 -391" stroke-width="6" stroke="url(#SvgjsLinearGradient1005)" stroke-linecap="round" class="Down"></path><path d="M319 426L318 800" stroke-width="8" stroke="url(#SvgjsLinearGradient1004)" stroke-linecap="round" class="Up"></path><path d="M576 81L575 -149" stroke-width="10" stroke="url(#SvgjsLinearGradient1005)" stroke-linecap="round" class="Down"></path><path d="M1218 535L1217 159" stroke-width="10" stroke="url(#SvgjsLinearGradient1005)" stroke-linecap="round" class="Down"></path><path d="M933 136L932 -264" stroke-width="8" stroke="url(#SvgjsLinearGradient1004)" stroke-linecap="round" class="Up"></path><path d="M334 208L333 580" stroke-width="6" stroke="url(#SvgjsLinearGradient1004)" stroke-linecap="round" class="Up"></path><path d="M494 528L493 162" stroke-width="6" stroke="url(#SvgjsLinearGradient1005)" stroke-linecap="round" class="Down"></path><path d="M90 227L89 425" stroke-width="6" stroke="url(#SvgjsLinearGradient1004)" stroke-linecap="round" class="Up"></path></g><defs><mask id="SvgjsMask1003"><rect width="1440" height="560" fill="#ffffff"></rect></mask><linearGradient x1="0%" y1="100%" x2="0%" y2="0%" id="SvgjsLinearGradient1004"><stop stop-color="rgba(170, 212, 198, 0)" offset="0"></stop><stop stop-color="rgba(170, 212, 198, 1)" offset="1"></stop></linearGradient><linearGradient x1="0%" y1="0%" x2="0%" y2="100%" id="SvgjsLinearGradient1005"><stop stop-color="rgba(170, 212, 198, 0)" offset="0"></stop><stop stop-color="rgba(170, 212, 198, 1)" offset="1"></stop></linearGradient></defs></svg>