<svg xmlns="http://www.w3.org/2000/svg" version="1.1" xmlns:xlink="http://www.w3.org/1999/xlink" xmlns:svgjs="http://svgjs.com/svgjs" width="1440" height="560" preserveAspectRatio="none" viewBox="0 0 1440 560"><g mask="url(&quot;#SvgjsMask1055&quot;)" fill="none"><path d="M674 497L673 131" stroke-width="10" stroke="url(#SvgjsLinearGradient1056)" stroke-linecap="round" class="Up"></path><path d="M945 211L944 -36" stroke-width="8" stroke="url(#SvgjsLinearGradient1057)" stroke-linecap="round" class="Down"></path><path d="M387 175L386 -11" stroke-width="6" stroke="url(#SvgjsLinearGradient1057)" stroke-linecap="round" class="Down"></path><path d="M1348 559L1347 915" stroke-width="8" stroke="url(#SvgjsLinearGradient1057)" stroke-linecap="round" class="Down"></path><path d="M48 511L47 719" stroke-width="6" stroke="url(#SvgjsLinearGradient1056)" stroke-linecap="round" class="Up"></path><path d="M1366 443L1365 192" stroke-width="8" stroke="url(#SvgjsLinearGradient1057)" stroke-linecap="round" class="Down"></path><path d="M1379 441L1378 687" stroke-width="6" stroke="url(#SvgjsLinearGradient1057)" stroke-linecap="round" class="Down"></path><path d="M5 38L4 295" stroke-width="8" stroke="url(#SvgjsLinearGradient1056)" stroke-linecap="round" class="Up"></path><path d="M1306 423L1305 728" stroke-width="6" stroke="url(#SvgjsLinearGradient1057)" stroke-linecap="round" class="Down"></path><path d="M539 353L538 694" stroke-width="6" stroke="url(#SvgjsLinearGradient1056)" stroke-linecap="round" class="Up"></path><path d="M1296 254L1295 -14" stroke-width="8" stroke="url(#SvgjsLinearGradient1057)" stroke-linecap="round" class="Down"></path><path d="M276 313L275 469" stroke-width="10" stroke="url(#SvgjsLinearGradient1056)" stroke-linecap="round" class="Up"></path><path d="M1180 414L1179 147" stroke-width="8" stroke="url(#SvgjsLinearGradient1057)" stroke-linecap="round" class="Down"></path><path d="M779 355L778 57" stroke-width="6" stroke="url(#SvgjsLinearGradient1057)" stroke-linecap="round" class="Down"></path><path d="M660 493L659 907" stroke-width="10" stroke="url(#SvgjsLinearGradient1056)" stroke-linecap="round" class="Up"></path><path d="M1055 6L1054 -255" stroke-width="8" stroke="url(#SvgjsLinearGradient1056)" stroke-linecap="round" class="Up"></path><path d="M475 310L474 497" stroke-width="6" stroke="url(#SvgjsLinearGradient1057)" stroke-linecap="round" class="Down"></path><path d="M1048 53L1047 -178" stroke-width="6" stroke="url(#SvgjsLinearGradient1057)" stroke-linecap="round" class="Down"></path><path d="M468 459L467 123" stroke-width="8" stroke="url(#SvgjsLinearGradient1057)" stroke-linecap="round" class="Down"></path><path d="M1304 283L1303 489" stroke-width="8" stroke="url(#SvgjsLinearGradient1057)" stroke-linecap="round" class="Down"></path><path d="M1062 436L1061 288" stroke-width="8" stroke="url(#SvgjsLinearGradient1057)" stroke-linecap="round" class="Down"></path><path d="M748 467L747 821" stroke-width="6" stroke="url(#SvgjsLinearGradient1057)" stroke-linecap="round" class="Down"></path><path d="M507 8L506 -311" stroke-width="6" stroke="url(#SvgjsLinearGradient1056)" stroke-linecap="round" class="Up"></path><path d="M209 178L208 367" stroke-width="10" stroke="url(#SvgjsLinearGradient1057)" stroke-linecap="round" class="Down"></path><path d="M410 171L409 -117" stroke-width="6" stroke="url(#SvgjsLinearGradient1056)" stroke-linecap="round" class="Up"></path><path d="M1130 177L1129 397" stroke-width="10" stroke="url(#SvgjsLinearGradient1057)" stroke-linecap="round" class="Down"></path><path d="M761 322L760 67" stroke-width="6" stroke="url(#SvgjsLinearGradient1056)" stroke-linecap="round" class="Up"></path><path d="M768 335L767 526" stroke-width="8" stroke="url(#SvgjsLinearGradient1056)" stroke-linecap="round" class="Up"></path><path d="M220 369L219 32" stroke-width="8" stroke="url(#SvgjsLinearGradient1056)" stroke-linecap="round" class="Up"></path><path d="M1218 534L1217 896" stroke-width="8" stroke="url(#SvgjsLinearGradient1057)" stroke-linecap="round" class="Down"></path><path d="M376 308L375 -2" stroke-width="8" stroke="url(#SvgjsLinearGradient1056)" stroke-linecap="round" class="Up"></path><path d="M244 271L243 27" stroke-width="10" stroke="url(#SvgjsLinearGradient1057)" stroke-linecap="round" class="Down"></path><path d="M1265 291L1264 457" stroke-width="10" stroke="url(#SvgjsLinearGradient1057)" stroke-linecap="round" class="Down"></path><path d="M8 406L7 82" stroke-width="6" stroke="url(#SvgjsLinearGradient1056)" stroke-linecap="round" class="Up"></path><path d="M850 274L849 659" stroke-width="8" stroke="url(#SvgjsLinearGradient1056)" stroke-linecap="round" class="Up"></path><path d="M211 159L210 -199" stroke-width="6" stroke="url(#SvgjsLinearGradient1057)" stroke-linecap="round" class="Down"></path></g><defs><mask id="SvgjsMask1055"><rect width="1440" height="560" fill="#ffffff"></rect></mask><linearGradient x1="0%" y1="100%" x2="0%" y2="0%" id="SvgjsLinearGradient1056"><stop stop-color="rgba(16, 185, 129, 0)" offset="0"></stop><stop stop-color="rgba(16, 185, 129, 1)" offset="1"></stop></linearGradient><linearGradient x1="0%" y1="0%" x2="0%" y2="100%" id="SvgjsLinearGradient1057"><stop stop-color="rgba(16, 185, 129, 0)" offset="0"></stop><stop stop-color="rgba(16, 185, 129, 1)" offset="1"></stop></linearGradient></defs></svg>